<?xml version="1.0" encoding="UTF-8"?>
<svg xmlns="http://www.w3.org/2000/svg" xmlns:xlink="http://www.w3.org/1999/xlink"><symbol viewBox="0 0 8 16" id="facebook" xmlns="http://www.w3.org/2000/svg"><path d="M8 0v3.2H6.4c-.552 0-.8.648-.8 1.2v2H8v3.2H5.6V16H2.4V9.6H0V6.4h2.4V3.2A3.2 3.2 0 015.6 0H8z"/></symbol><symbol viewBox="0 0 16 16" id="instagram" xmlns="http://www.w3.org/2000/svg"><path fill-rule="evenodd" clip-rule="evenodd" d="M4.64 0h6.72C13.92 0 16 2.08 16 4.64v6.72c0 2.56-2.08 4.64-4.64 4.64H4.64C2.08 16 0 13.92 0 11.36V4.64C0 2.08 2.08 0 4.64 0zm-.16 1.6A2.878 2.878 0 001.6 4.48v7.04a2.878 2.878 0 002.88 2.88h7.04a2.878 2.878 0 002.88-2.88V4.48a2.878 2.878 0 00-2.88-2.88H4.48zm8.72 2.2a1 1 0 10-2 0 1 1 0 002 0zM8 4c2.208 0 4 1.792 4 4s-1.792 4-4 4-4-1.792-4-4 1.792-4 4-4zM5.6 8c0-1.328 1.072-2.4 2.4-2.4 1.328 0 2.4 1.072 2.4 2.4 0 1.328-1.072 2.4-2.4 2.4A2.397 2.397 0 015.6 8z"/></symbol><symbol viewBox="0 0 16 15" id="teleg" xmlns="http://www.w3.org/2000/svg"><path d="M14.48.373c-.2.009-.388.067-.555.132h-.002c-.17.067-.975.406-2.197.918L7.343 3.27 1.106 5.897l.037-.014s-.213.07-.436.223a1.205 1.205 0 00-.348.336.988.988 0 00-.165.66c.054.428.332.686.532.827.201.144.394.211.394.211h.005l2.899.977c.13.417.883 2.894 1.064 3.465.107.34.211.554.341.716a.84.84 0 00.225.21.66.66 0 00.146.062l-.03-.007c.01.002.016.009.023.011.024.007.04.01.07.014.46.14.828-.146.828-.146l.02-.016 1.712-1.559 2.87 2.201.064.028c.599.262 1.204.116 1.524-.141.323-.26.448-.592.448-.592l.02-.053 2.218-11.358c.063-.28.079-.543.01-.798a1.073 1.073 0 00-.465-.621 1.111 1.111 0 00-.633-.16zm-.061 1.217c-.002.037.005.033-.012.105v.007l-2.196 11.24c-.01.015-.026.05-.07.085-.046.037-.083.06-.276-.016l-3.509-2.69-2.12 1.931.446-2.843 5.733-5.344c.237-.22.158-.267.158-.267.016-.269-.357-.079-.357-.079L4.986 8.2l-.002-.012L1.519 7.02v-.002l-.01-.003.02-.007L1.546 7l.018-.007 6.24-2.628 4.38-1.846c1.22-.512 2.123-.888 2.174-.91.048-.018.025-.018.06-.018z"/></symbol><symbol viewBox="0 0 16 9" id="vk" xmlns="http://www.w3.org/2000/svg"><path d="M14.032 6.175c1.24 1.17 1.496 1.73 1.536 1.804.512.861-.56.926-.56.926l-2.064.033s-.448.089-1.024-.317c-.776-.537-1.52-1.942-2.072-1.755-.568.187-.552 1.446-.552 1.446s0 .179-.128.317c-.144.154-.424.097-.424.097h-.92S5.784 8.937 4 7.044C2.04 4.981.312.918.312.918S.216.674.32.536c.12-.13.456-.13.456-.13h2.208s.216 0 .352.13c.12.09.192.276.192.276s.352.902.832 1.731C5.28 4.16 5.704 4.51 6 4.34c.48-.252.344-2.283.344-2.283s.008-.74-.232-1.065C5.928.74 5.576.658 5.424.641c-.128-.015.08-.308.344-.446C6.168 0 6.864 0 7.696 0c.648 0 .832.049 1.08.106.768.186.504.91.504 2.632 0 .56-.08 1.325.296 1.593.168.113.584.016 1.624-1.764.48-.845.848-1.844.848-1.844s.08-.17.2-.252c.128-.065.304-.065.304-.065h2.32s.704-.081.816.236c.12.333-.264 1.121-1.216 2.397-1.552 2.112-1.728 1.917-.44 3.136z"/></symbol></svg>